<?xml version="1.0" encoding="UTF-8"?>
<svg xmlns="http://www.w3.org/2000/svg" xmlns:xlink="http://www.w3.org/1999/xlink" viewBox="0 0 24 24" width="24px" height="24px">
<g id="surface427709">
<path style=" stroke:none;fill-rule:nonzero;fill:rgb(61.56863%,61.56863%,61.56863%);fill-opacity:1;" d="M 12 1.921875 L 1.921875 8.324219 L 1.921875 15.671875 L 12 22.078125 L 22.078125 15.675781 L 22.078125 8.324219 Z M 12 14.007812 L 9.152344 12.035156 L 12 10.089844 L 14.847656 12.035156 Z M 12.960938 8.449219 L 12.960938 4.777344 L 19.40625 8.871094 L 16.515625 10.875 Z M 11.039062 8.449219 L 7.484375 10.875 L 4.59375 8.871094 L 11.039062 4.777344 Z M 5.804688 12.019531 L 3.839844 13.359375 L 3.839844 10.65625 Z M 7.472656 13.175781 L 11.039062 15.652344 L 11.039062 19.222656 L 4.601562 15.132812 Z M 12.960938 15.652344 L 16.527344 13.175781 L 19.398438 15.132812 L 12.960938 19.222656 Z M 18.195312 12.019531 L 20.160156 10.65625 L 20.160156 13.359375 Z M 18.195312 12.019531 "/>
</g>
</svg>
